<?xml version="1.0" standalone="no"?>
<!DOCTYPE svg PUBLIC "-//W3C//DTD SVG 20010904//EN"
 "http://www.w3.org/TR/2001/REC-SVG-20010904/DTD/svg10.dtd">
<svg version="1.0" xmlns="http://www.w3.org/2000/svg"
 width="260.000000pt" height="260.000000pt" viewBox="0 0 260.000000 260.000000"
 preserveAspectRatio="xMidYMid meet">
<metadata>
Created by potrace 1.14, written by Peter Selinger 2001-2017
</metadata>
<g transform="translate(0.000000,260.000000) scale(0.100000,-0.100000)"
fill="#000000" stroke="none">
<path d="M0 1300 l0 -1300 1300 0 1300 0 0 1300 0 1300 -1300 0 -1300 0 0
-1300z m750 98 l0 -642 31 -32 c27 -28 32 -42 36 -98 l6 -66 -59 0 c-61 0
-101 18 -162 73 l-22 20 0 694 0 693 85 0 85 0 0 -642z m1600 -1 l0 -643 35
-31 c33 -30 35 -34 35 -97 l0 -66 -53 0 c-46 0 -63 6 -114 39 -33 21 -63 46
-66 56 -4 9 -7 325 -7 701 l0 684 85 0 85 0 0 -643z m-507 115 c90 -68 87 -51
87 -452 0 -401 3 -384 -87 -452 l-56 -43 -261 -3 c-144 -2 -275 0 -293 3 -40
7 -127 75 -148 115 -22 42 -23 716 -1 759 16 30 91 96 128 111 13 5 141 8 299
7 l276 -2 56 -43z m-1533 -782 c26 -26 28 -124 3 -152 -23 -26 -106 -25 -133
2 -30 30 -29 133 2 154 33 23 103 21 128 -4z"/>
<path d="M1268 1404 l-28 -15 0 -328 0 -329 25 -16 c20 -13 58 -16 238 -16
201 0 215 1 235 20 22 21 22 24 22 340 l0 319 -26 20 c-25 20 -39 21 -233 21
-163 -1 -212 -4 -233 -16z"/>
</g>
</svg>
